<?xml version="1.0" standalone="no"?>
<!DOCTYPE svg PUBLIC "-//W3C//DTD SVG 20010904//EN"
 "http://www.w3.org/TR/2001/REC-SVG-20010904/DTD/svg10.dtd">
<svg version="1.0" xmlns="http://www.w3.org/2000/svg"
 width="960.000000pt" height="960.000000pt" viewBox="0 0 960.000000 960.000000"
 preserveAspectRatio="xMidYMid meet">
<metadata>
Created by potrace 1.14, written by Peter Selinger 2001-2017
</metadata>
<g transform="translate(0.000000,960.000000) scale(0.100000,-0.100000)"
fill="#000000" stroke="none">
<path d="M2162 7236 c-5 -6 -21 -51 -36 -101 -15 -49 -30 -97 -33 -105 -3 -8
-7 -20 -8 -26 -2 -7 -19 -61 -38 -120 -19 -60 -45 -143 -57 -184 -11 -41 -24
-82 -27 -90 -4 -8 -7 -17 -8 -20 -1 -3 -4 -12 -8 -20 -3 -8 -22 -71 -42 -140
-21 -69 -40 -129 -43 -135 -4 -5 -7 -17 -9 -25 -1 -8 -14 -51 -28 -95 -23 -71
-102 -323 -109 -350 -2 -5 -6 -17 -9 -25 -3 -8 -24 -76 -47 -150 -23 -74 -55
-178 -72 -230 -16 -52 -31 -99 -32 -105 -2 -5 -6 -17 -9 -25 -3 -8 -20 -62
-37 -120 -17 -58 -34 -112 -37 -120 -3 -8 -8 -21 -10 -27 -1 -7 -5 -19 -6 -25
-2 -7 -6 -20 -9 -28 -5 -13 -40 -127 -43 -140 -1 -3 -4 -12 -8 -20 -6 -16 -78
-249 -82 -265 -1 -5 -5 -17 -8 -25 -7 -17 -83 -263 -102 -330 -7 -25 -18 -58
-25 -75 -6 -16 -13 -38 -15 -48 -2 -10 -25 -84 -50 -165 -26 -81 -56 -176 -67
-212 -11 -36 -22 -72 -25 -80 -3 -8 -7 -19 -8 -25 -4 -17 -136 -439 -142 -455
-3 -8 -7 -19 -9 -25 -1 -5 -17 -55 -34 -110 -17 -55 -42 -134 -55 -175 -12
-41 -39 -127 -59 -190 -21 -63 -38 -119 -40 -125 -1 -5 -11 -37 -21 -70 -10
-33 -20 -64 -21 -70 -1 -5 -9 -30 -18 -54 -9 -24 -16 -50 -16 -57 0 -12 94
-14 573 -14 l573 0 23 88 c13 48 25 98 28 112 2 14 13 54 23 90 11 36 22 76
24 90 5 25 47 187 65 248 5 17 8 32 5 32 -3 0 0 8 5 18 6 11 12 30 15 43 3 13
7 34 10 47 4 12 8 30 10 40 3 9 19 71 36 137 17 66 33 127 35 135 2 8 9 36 15
63 l12 47 767 -2 c604 -2 766 -6 767 -15 1 -7 2 -14 4 -15 1 -2 3 -10 5 -18 2
-8 26 -105 55 -215 108 -421 133 -515 176 -685 25 -96 49 -190 55 -207 l11
-33 764 0 764 0 -4 1073 c-2 589 -6 1090 -9 1112 -5 38 -12 120 -22 245 -10
119 -25 297 -30 345 -2 17 -6 62 -9 101 -9 100 -17 177 -32 304 -3 30 -8 71
-9 90 -5 54 -15 141 -21 185 -11 69 -10 80 6 80 10 0 29 -42 61 -135 25 -74
48 -142 51 -150 8 -20 89 -262 92 -275 2 -5 6 -23 11 -40 4 -16 10 -34 13 -39
3 -5 47 -136 99 -290 51 -155 97 -290 102 -301 5 -11 19 -47 31 -80 11 -33 24
-69 29 -80 21 -50 51 -131 51 -138 0 -4 9 -26 19 -50 10 -23 26 -62 34 -87 18
-55 70 -194 87 -235 7 -16 14 -34 16 -40 3 -14 44 -124 154 -415 50 -135 110
-294 132 -355 22 -60 44 -119 49 -130 18 -44 69 -180 69 -186 0 -4 7 -23 15
-44 13 -29 19 -34 30 -25 7 6 15 7 18 3 7 -11 576 -8 586 3 10 12 261 686 261
702 0 7 5 12 12 12 6 0 9 2 6 6 -3 3 10 44 28 92 19 48 34 87 34 87 -2 0 12
37 36 98 12 31 20 57 17 57 -3 0 -1 6 4 13 5 6 20 41 33 77 12 36 29 80 37 99
8 18 16 39 18 45 1 6 7 25 14 41 6 17 25 68 42 115 18 47 37 99 44 115 7 17
20 50 28 75 8 25 20 56 25 70 13 33 25 64 26 70 1 6 25 69 37 95 4 11 20 56
35 100 15 44 51 150 81 235 30 85 55 160 57 165 1 6 13 42 26 80 13 39 25 72
25 75 1 3 4 12 8 20 3 8 17 49 31 90 147 437 156 460 173 460 15 0 15 -4 -2
-155 -3 -22 -7 -60 -10 -85 -4 -41 -7 -65 -20 -180 -2 -19 -6 -51 -9 -70 -3
-19 -8 -66 -11 -105 -4 -38 -9 -86 -12 -105 -3 -19 -6 -55 -8 -80 -2 -40 -7
-95 -20 -215 -3 -22 -7 -69 -10 -105 -3 -36 -8 -85 -10 -110 -3 -25 -8 -101
-11 -170 -8 -156 -11 -2138 -3 -2151 3 -5 213 -8 514 -7 l510 3 0 2485 c0
1367 -1 2492 -3 2501 -3 15 -57 17 -613 16 -335 0 -612 -4 -615 -8 -3 -5 -18
-46 -34 -91 -16 -46 -48 -135 -70 -198 -23 -63 -50 -142 -61 -175 -11 -33 -24
-69 -29 -80 -5 -11 -30 -81 -56 -155 -25 -74 -50 -144 -54 -155 -11 -24 -51
-136 -53 -150 -2 -5 -5 -14 -8 -20 -5 -8 -49 -135 -54 -155 -1 -3 -5 -12 -8
-20 -4 -8 -29 -80 -57 -160 -28 -80 -53 -152 -57 -160 -3 -8 -7 -19 -9 -25 -6
-19 -104 -300 -110 -315 -8 -17 -67 -185 -147 -412 -31 -86 -53 -159 -50 -162
4 -3 1 -6 -5 -6 -7 0 -11 -3 -10 -7 3 -14 -14 -78 -24 -90 -6 -7 -7 -13 -3
-13 4 0 3 -6 -3 -12 -6 -7 -10 -16 -10 -21 -1 -15 -14 -72 -20 -82 -4 -5 -7
-14 -8 -20 -6 -38 -78 -288 -100 -348 -8 -20 -14 -38 -13 -40 0 -1 -3 -11 -6
-22 -4 -11 -9 -26 -11 -33 -10 -33 -37 -3 -59 63 -31 95 -67 208 -70 220 -1 6
-5 17 -8 25 -4 12 -27 87 -42 140 -1 3 -7 25 -14 50 -7 25 -24 81 -39 125 -14
44 -27 86 -28 93 -4 20 -104 301 -160 449 -13 34 -24 66 -24 72 0 6 -4 19 -10
29 -10 18 -38 95 -45 125 -2 9 -7 22 -10 27 -3 5 -26 65 -50 132 -24 68 -59
166 -78 218 -19 52 -47 129 -61 170 -15 41 -31 84 -36 95 -5 11 -23 61 -40
110 -75 213 -111 311 -119 330 -5 11 -51 137 -101 280 -51 143 -98 274 -105
290 -8 17 -17 42 -20 57 -4 15 -14 29 -23 32 -21 5 -1191 6 -1212 0 -13 -3
-15 -166 -15 -1399 0 -767 -2 -1395 -5 -1395 -5 0 -18 39 -75 225 -20 66 -41
132 -47 147 -5 15 -10 31 -10 35 -1 4 -11 37 -23 73 -12 36 -23 70 -25 75 -1
6 -4 15 -6 20 -21 67 -56 182 -58 190 -2 6 -5 17 -8 25 -8 24 -43 133 -88 280
-23 74 -54 176 -70 225 -15 50 -47 151 -70 224 -23 74 -43 140 -44 145 -1 6
-7 25 -13 41 -10 26 -65 198 -69 218 -1 4 -3 9 -4 12 -1 3 -3 8 -4 13 -2 8
-43 138 -93 294 -18 58 -36 115 -38 125 -2 10 -9 32 -15 48 -6 17 -13 37 -15
45 -2 8 -10 35 -18 60 -8 25 -31 97 -51 161 l-36 116 -675 0 c-487 0 -677 -3
-683 -11z m673 -873 c4 -16 9 -37 12 -48 9 -40 12 -50 13 -50 2 0 6 -16 13
-55 3 -14 6 -25 7 -25 1 0 3 -7 5 -15 2 -8 6 -26 8 -40 7 -31 35 -144 47 -190
8 -30 185 -740 210 -840 5 -19 20 -78 35 -130 29 -108 33 -124 40 -164 3 -16
10 -37 16 -47 5 -11 8 -19 5 -19 -3 0 0 -15 5 -32 6 -18 12 -44 15 -58 3 -14
8 -34 11 -45 4 -11 8 -24 9 -30 1 -5 13 -55 27 -110 13 -55 27 -112 30 -126
l6 -25 -529 0 c-588 0 -541 -6 -519 66 5 19 12 42 14 50 2 8 11 40 19 70 22
81 78 293 80 305 2 6 10 35 20 66 9 31 18 65 20 75 3 11 23 91 46 179 23 88
43 167 45 175 4 18 45 199 50 220 9 40 57 240 66 275 9 35 17 76 23 110 1 6 5
16 10 23 4 7 6 16 3 19 -3 2 1 22 8 44 8 21 13 39 11 39 -2 0 2 20 10 45 7 25
10 45 7 45 -3 0 0 7 7 15 7 8 10 15 7 15 -3 0 -1 17 5 38 5 20 11 46 12 57 4
19 21 89 32 128 8 26 31 20 39 -10z"/>
</g>
</svg>
